<svg fill="darkturquoise" version="1.1" id="Layer_1" xmlns="http://www.w3.org/2000/svg" xmlns:xlink="http://www.w3.org/1999/xlink" width="100px" height="100px" viewBox="0 0 3.75 3.25" xml:space="preserve"><g id="message"><path d="M3.592 3.151c-0.216 -0.039 -0.471 -0.184 -0.593 -0.453C3.454 2.425 3.75 1.99 3.75 1.5c0 -0.828 -0.84 -1.5 -1.875 -1.5S0 0.672 0 1.5s0.84 1.5 1.875 1.5c0.139 0 0.274 -0.013 0.404 -0.036 0.357 0.247 0.781 0.326 1.301 0.267 0.031 -0.003 0.044 -0.018 0.044 -0.041a0.04 0.04 0 0 0 -0.033 -0.04M1.125 1.75a0.25 0.25 0 1 1 0 -0.5 0.25 0.25 0 0 1 0 0.5m0.75 0a0.25 0.25 0 1 1 0 -0.5 0.25 0.25 0 0 1 0 0.5m0.75 0a0.25 0.25 0 1 1 0 -0.5 0.25 0.25 0 0 1 0 0.5"/></g><g id="Layer_1_1_"/></svg>