<svg version="1.1" id="Layer_1" xmlns="http://www.w3.org/2000/svg" xmlns:xlink="http://www.w3.org/1999/xlink" x="0px" y="0px" viewBox="0 0 100.002 100.002" style="enable-background:new 0 0 512.002 512.002;" xml:space="preserve" width="100.002" height="100.002"><g><path style="fill:#77C0BC;" d="m5.935 89.534 0.755 -3.777 3.777 -0.755c5.415 5.415 14.225 5.415 19.64 0l40.934 -40.935c2.916 -2.916 2.915 -7.66 0 -10.575l0.755 -3.777 3.777 -0.755c5.415 5.415 5.415 14.225 0 19.64L34.64 89.534c-7.914 7.914 -20.79 7.914 -28.704 0"/><path style="fill:#77C0BC;" d="M48.693 93.61 44.161 89.077l43.499 -43.499c7.914 -7.914 7.914 -20.79 0 -28.704l0.755 -3.777 3.777 -0.755c10.413 10.413 10.413 27.356 0 37.769z"/></g><g><path style="fill:#98D9D5;" d="m24.521 69.438 -4.532 -4.532 35.945 -35.945c5.415 -5.415 14.225 -5.415 19.64 0l-4.532 4.532c-2.915 -2.915 -7.66 -2.916 -10.575 0z"/><path style="fill:#98D9D5;" d="M5.935 89.534c-7.914 -7.914 -7.914 -20.79 0 -28.704L54.424 12.342c10.413 -10.413 27.356 -10.413 37.769 0l-4.532 4.532c-7.914 -7.914 -20.79 -7.914 -28.704 0L10.468 65.362c-5.415 5.415 -5.415 14.225 0 19.64z"/></g></svg>